<?xml version="1.0" encoding="utf-8"?>
<!-- Generator: Adobe Illustrator 21.0.2, SVG Export Plug-In . SVG Version: 6.00 Build 0)  -->
<svg version="1.1" id="Layer_1" xmlns="http://www.w3.org/2000/svg" xmlns:xlink="http://www.w3.org/1999/xlink" x="0px" y="0px"
	 width="29px" height="36px" viewBox="0 0 29 36" style="enable-background:new 0 0 29 36;" xml:space="preserve">
<style type="text/css">
	.st0{fill:url(#SVGID_1_);}
	.st1{fill:url(#SVGID_2_);}
	.st2{fill:url(#SVGID_3_);}
	.st3{fill:url(#SVGID_4_);}
</style>
<g>
	<linearGradient id="SVGID_1_" gradientUnits="userSpaceOnUse" x1="1.5479" y1="22.9246" x2="27.3995" y2="22.9246">
		<stop  offset="0" style="stop-color:#134E5E"/>
		<stop  offset="1" style="stop-color:#62896A"/>
	</linearGradient>
	<path class="st0" d="M25.7,9.9c-1.4,0.1-1.6,1.2-1.6,2.3c0,5.6,0,11.2,0,16.8c0,2.5-1.1,3.6-3.6,3.7c-4,0-7.9,0-11.9,0
		c-2.7,0-3.8-1.1-3.8-3.9c0-5.6,0-11.1,0-16.7c0-1.2-0.3-2.2-1.6-2.2c-1.4,0-1.6,1.1-1.6,2.3c0,2.9,0,5.7,0,8.6c0,2.8,0,5.5,0,8.3
		c0,4.4,2.6,7,6.8,7c4.1,0,8.1,0,12.2,0c4.2,0,6.8-2.7,6.8-6.9c0-5.6,0-11.2,0-16.8C27.4,10.7,26.8,9.7,25.7,9.9z"/>
	<linearGradient id="SVGID_2_" gradientUnits="userSpaceOnUse" x1="9.094947e-13" y1="4.1039" x2="29" y2="4.1039">
		<stop  offset="0" style="stop-color:#134E5E"/>
		<stop  offset="1" style="stop-color:#62896A"/>
	</linearGradient>
	<path class="st1" d="M28.8,6.2c-0.3-0.6-1.3-1.1-2-1.2c-1.9-0.2-3.9-0.1-6-0.1c0-1.1,0-2,0-2.9c0-1.3-0.6-1.9-1.8-1.9
		C16,0,12.9,0,9.9,0C8.6,0,8,0.7,8,2c0,0.9,0,1.8,0,2.9c-2.1,0-4.1,0-6,0C0.9,4.9,0,5.2,0,6.6C0,7.9,1,8.2,2.1,8.2c2.5,0,5,0,7.5,0
		c5.7,0,11.5,0,17.2,0C28.4,8.2,29.4,7.2,28.8,6.2z M17.6,4.8c-2.1,0-4.1,0-6.3,0c0-0.4-0.1-0.9-0.1-1.4c2.2,0,4.3,0,6.4,0
		C17.6,3.9,17.6,4.3,17.6,4.8z"/>
	<linearGradient id="SVGID_3_" gradientUnits="userSpaceOnUse" x1="9.634" y1="20.4475" x2="12.8898" y2="20.4475">
		<stop  offset="0" style="stop-color:#134E5E"/>
		<stop  offset="1" style="stop-color:#62896A"/>
	</linearGradient>
	<path class="st2" d="M11.3,27.8c1.1,0,1.6-0.8,1.6-1.8c0-3.7,0-7.3,0-11c0-1-0.4-1.8-1.6-1.8c-1.2,0-1.7,0.8-1.7,1.9
		c0,1.8,0,3.6,0,5.3c0,1.8,0,3.7,0,5.5C9.6,27,10.1,27.8,11.3,27.8z"/>
	<linearGradient id="SVGID_4_" gradientUnits="userSpaceOnUse" x1="16.0566" y1="20.4477" x2="19.314" y2="20.4477">
		<stop  offset="0" style="stop-color:#134E5E"/>
		<stop  offset="1" style="stop-color:#62896A"/>
	</linearGradient>
	<path class="st3" d="M17.8,13.1c-1.3-0.1-1.7,0.8-1.7,2c0,3.6,0,7.1,0,10.7c0,1.1,0.4,2,1.6,2c1.3,0,1.6-0.9,1.6-2.1
		c0-1.7,0-3.5,0-5.2c0-1.8,0-3.6,0-5.3C19.3,14.1,19,13.2,17.8,13.1z"/>
</g>
</svg>
