<?xml version="1.0" encoding="utf-8"?>
<!-- Generator: Adobe Illustrator 21.0.2, SVG Export Plug-In . SVG Version: 6.00 Build 0)  -->
<svg version="1.1" id="Layer_1" xmlns="http://www.w3.org/2000/svg" xmlns:xlink="http://www.w3.org/1999/xlink" x="0px" y="0px"
	 width="36px" height="36px" viewBox="0 0 36 36" style="enable-background:new 0 0 36 36;" xml:space="preserve">
<style type="text/css">
	.st0{fill:url(#SVGID_1_);}
	.st1{fill:url(#SVGID_2_);}
	.st2{fill:url(#SVGID_3_);}
</style>
<linearGradient id="SVGID_1_" gradientUnits="userSpaceOnUse" x1="14.0819" y1="13.1538" x2="31.7678" y2="13.1538">
	<stop  offset="0" style="stop-color:#134E5E"/>
	<stop  offset="1" style="stop-color:#62896A"/>
</linearGradient>
<polygon class="st0" points="26.6,4.4 15.2,15.6 14.1,21.5 14.5,21.9 20.4,20.7 31.8,9.3 "/>
<linearGradient id="SVGID_2_" gradientUnits="userSpaceOnUse" x1="28.1639" y1="3.9272" x2="36" y2="3.9272">
	<stop  offset="0" style="stop-color:#134E5E"/>
	<stop  offset="1" style="stop-color:#62896A"/>
</linearGradient>
<path class="st1" d="M28.2,2.8l5,5L35,6c1.4-1.4,1.3-3.6,0-5l0,0c-1.4-1.3-3.5-1.4-4.9,0L28.2,2.8z"/>
<linearGradient id="SVGID_3_" gradientUnits="userSpaceOnUse" x1="0" y1="19.7471" x2="32.5019" y2="19.7471">
	<stop  offset="0" style="stop-color:#134E5E"/>
	<stop  offset="1" style="stop-color:#62896A"/>
</linearGradient>
<path class="st2" d="M26.5,36C26.5,36,26.5,36,26.5,36L6,35.9c-3.3,0-6-2.7-6-6V9.5c0-3.3,2.7-6,6-6h11.1c1.1,0,2,0.9,2,2v0
	c0,1.1-0.9,2-2,2H6c-1.1,0-2,0.9-2,2v20.3c0,1.1,0.9,2,2,2L26.5,32c0.6,0,1.1-0.2,1.5-0.6c0.4-0.4,0.5-0.9,0.5-1.4V18.9
	c0-1.1,0.9-2,2-2h0c1.1,0,2,0.9,2,2v11c0,1.6-0.6,3.2-1.8,4.3C29.6,35.4,28.1,36,26.5,36z"/>
</svg>
