<svg clip-rule="evenodd" fill-rule="evenodd" stroke-linejoin="round" stroke-miterlimit="2" viewBox="0 0 64 64" xmlns="http://www.w3.org/2000/svg"><defs/><g fill-rule="nonzero"><path d="M0 0h64v63.99H0z" fill="#32c0d4" fill-opacity=".75"/><path d="M43.97 33.22l-3.84-7.7a2.44 2.44 0 00-3.83-.7l-6.8 6.25a.98.98 0 00.48 1.68l1.32.25a3.1 3.1 0 002.32-.48l4.12-2.8z" fill="#6b4022"/><path d="M44.73 33.92l-1.5-9.56a2.75 2.75 0 00-3.89-2.06l-9.4 4.41a1.1 1.1 0 00-.06 1.96l1.32.72c.82.44 1.77.53 2.66.27l5.37-1.62z" fill="#845230"/><path d="M41.9 34.87l5.01-9.72a3.1 3.1 0 00-2.15-4.46L33.24 18.4c-1-.2-1.8.83-1.36 1.75l.73 1.54a3.93 3.93 0 002.23 2.02l5.98 2.12z" fill="#935e3a"/><path d="M27.23 28.4a8.67 8.67 0 100-17.34 8.67 8.67 0 000 17.34z" fill="#ffb600"/><path d="M29.34 23.65a.69.69 0 01-.39-.12l-1.81-1.15-1.78 1.15a.72.72 0 01-.8-.02.71.71 0 01-.26-.75l.54-2.1-1.65-1.33c-.22-.19-.3-.48-.22-.76s.34-.47.62-.49l2.16-.13.76-1.99a.7.7 0 011.31 0l.8 2.02 2.12.11c.29.02.53.2.62.5a.7.7 0 01-.22.75l-1.65 1.36.53 2.07a.71.71 0 01-.26.74.71.71 0 01-.42.14z" fill="#ffd599"/><path d="M22.82 48.97l15.43-.4 6.4-8.5a6.31 6.31 0 001.26-4.1l-.78-16.72c-.09-1.73-1.2-3.12-2.69-4l-9.03-5.3a1 1 0 00-1.51.83l.07 2.2c-.03.92.36 1.8 1.07 2.38L37.48 19c.43.35.68.86.7 1.4l.22 5.5c.04.82-.3 1.62-.93 2.17l-6.35 5.55a1.2 1.2 0 01-1.83-.34l-2-3.69a4.03 4.03 0 00-2.38-1.94l-2.29-.69a1.46 1.46 0 00-1.86 1.65l1.62 9.71c.02.15.04.3.04.45z" fill="#a56b44"/><path d="M44.8 64H16.64V52c0-1.86 2-3.36 4.45-3.36H44.8z" fill="#fff"/><path d="M26.72 52.5l-3.12-.03-.03 2.63-2.63-.03-.03 3.11 2.62.03-.03 2.63 3.12.04.03-2.63 2.63.03.03-3.12-2.62-.03z" fill="#cfd2d5"/></g></svg>