<svg viewBox="0 0 64 64" fill="none" xmlns="http://www.w3.org/2000/svg"><defs/><g clip-path="url(#clip0)"><path d="M64 0H0v64h64V0z" fill="#97D4CE"/><path d="M25.8 15.4h-7.1v-7h10.6v3.5c0 2-1.6 3.5-3.5 3.5z" fill="#333"/><path d="M23.9 27.6H18L9.7 31a6.1 6.1 0 00-3.9 5.7v14l3 2.9L8.6 64h26.1l.2-28c0-2.6-1.7-5-4.3-5.8-3-1-6.8-2.7-6.7-2.6z" fill="#fff"/><path d="M27.7 21.2l-.4-8.6a2 2 0 00-2.4-1.9h-5l-1.8 4 .7 1.4H18v11.3a2.9 2.9 0 005.8 0v-3.8l1.8-.1a2 2 0 002-2.3z" fill="#A97148"/><path d="M44 20.5A5.7 5.7 0 1044 9a5.7 5.7 0 000 11.4z" fill="#D7501E"/><path d="M52.3 16a7.4 7.4 0 10-14.6 1.6v10.3c0 3.2 2.6 5.9 5.9 5.9h8.6v-17-.7z" fill="#673332"/><path d="M47.2 14.7l-8-1-.5 2 1.9 7.7c.2.8.9 1.4 1.7 1.5l1 .2v1.2c0 1.2.8 2.1 1.8 2.1s1.8-.9 1.8-2v-6l.3-5.7z" fill="#FFB57C"/><path d="M60.5 47.3l-2.8-14.7c-.2-1.2-.9-2-1.8-2.6-.4-.3-.9-.5-1.4-.6l-6.8-1.7V26H41v1L37.7 29a5.8 5.8 0 00-3 4l-2.6 10h2.7V64h20.7L55 53l3.6-2a3.5 3.5 0 001.8-3.7z" fill="#006667"/><path d="M48.4 15.5A5.4 5.4 0 0038 16c0 .5.3 1 .9 1h6.4v12.5c0 2.7 2.2 5 5 5h1.9v-19h-3.8z" fill="#673332"/><path d="M24.7 30.6h-7.4V25H23c.9 0 1.6.7 1.6 1.6v4z" fill="#fff"/><path d="M22.2 9.9a4.3 4.3 0 00-7.6 2.7V19c0 1.8 1.5 3.3 3.3 3.3h.3V17h.7c1.8 0 3.2-1 4-2.4h.1c2.7 0 4.8-2 4.8-4.7h-5.6z" fill="#333"/><path d="M17.8 39.3h-5.4v-2.4h3c1.4 0 2.4 1 2.4 2.4z" fill="#00837A"/><path d="M42.6 40.8H21.4V64h21.2V40.7z" fill="#fff"/><path d="M21.4 40.8h21.2V64h2.1V40c0-1.2-1-2.2-2.2-2.2h-21c-1.2 0-2.2 1-2.2 2.3V64h2V40.7z" fill="#00837A"/><path d="M26.5 57.4a2.7 2.7 0 110-5.5 2.7 2.7 0 010 5.5zm0-8.3a2.7 2.7 0 110-5.5 2.7 2.7 0 010 5.5z" fill="#fff"/><path opacity=".2" d="M26.5 43.6a2.7 2.7 0 100 5.5 2.7 2.7 0 000-5.5zM40.3 44.9H31v2.9h9.3v-3zM26.5 51.9a2.7 2.7 0 100 5.4 2.7 2.7 0 000-5.4zM40.3 53.1H31v3h9.3v-3zM29.3 62.9A2.7 2.7 0 1024 64h5c.2-.3.3-.7.3-1.1zM40.3 61.4H31V64h9.3v-2.6z" fill="#009787"/><path d="M23 48.5v4.9h7.6c1.1 0 2-.6 2.5-1.6l1-1.9h2c.7 0 1.3-.5 1.3-1.3H23z" fill="#A97148"/><path d="M7.1 35.2c-.2-.6-1-.6-1.2 0l-2 11A6 6 0 009.6 54h15.2v-6l-14.5-2-3.3-10.8z" fill="#fff"/><path d="M19.4 17.8a1.4 1.4 0 100-2.8 1.4 1.4 0 000 2.8z" fill="#A97148"/></g><defs><clipPath id="clip0"><path fill="#fff" d="M0 0h64v64H0z"/></clipPath></defs></svg>
