<svg viewBox="0 0 64 64" fill="none" xmlns="http://www.w3.org/2000/svg"><defs/><path fill="#fff" d="M0 0h64v64H0z"/><path d="M64 0H0v64h64V0z" fill="#A79AD5"/><path d="M50.3 18.4h-34a4 4 0 00-4 4V45a4 4 0 004 4h20.9l7.7 7.7c1 1 2.6.3 2.6-1V49h2.8a4 4 0 004-4V22.4a4 4 0 00-4-4z" fill="#2F1F70"/><path d="M49.6 31.7H17v3.8h32.5v-3.8zM49.6 24.2H17V28h32.5v-3.8zM49.6 39.1H17V43h32.5V39z" fill="#66C"/><path d="M4.5 21a14.5 14.5 0 1129 0 14.5 14.5 0 01-29 0z" fill="#6855AD"/><path d="M25.7 23.5l-.4-8.2a2 2 0 00-2.2-1.8h-4.8l-1.7 3.7.7 1.4h-.7v10.8a2.7 2.7 0 105.5 0v-3.7H24c1-.1 2-1.1 1.8-2.2z" fill="#F9C8A7"/><path d="M24 18h-6.8v-6.7h10v3.3c0 1.8-1.4 3.3-3.3 3.3z" fill="#2F1F70"/><path d="M17.4 19.5a4.1 4.1 0 100-8.2 4.1 4.1 0 000 8.2z" fill="#2F1F70"/><path d="M16.7 24.5h-.2a3.2 3.2 0 01-3.2-3.2v-6h3.4v9.2z" fill="#2F1F70"/><path d="M17.9 20.2a1.3 1.3 0 100-2.7 1.3 1.3 0 000 2.7z" fill="#F9C8A7"/><path d="M22.9 32.4h-7v-5.3h5.5c.8 0 1.5.6 1.5 1.4v3.9z" fill="#fff"/><path d="M19 35.6c3.5 0 6.7-1.3 9.2-3.3a6.3 6.3 0 00-4.4-1.8h-9.2c-1.8 0-3.5.8-4.6 2 2.5 2 5.6 3 9 3z" fill="#fff"/></svg>
