<svg clip-rule="evenodd" fill-rule="evenodd" stroke-linejoin="round" stroke-miterlimit="2" viewBox="0 0 64 64" xmlns="http://www.w3.org/2000/svg"><defs/><path d="M0 0h64v64H0z" fill="#fff"/><g fill-rule="nonzero"><path d="M0 0h64v64H0z" fill="#319f7a"/><path d="M37.68 30.57h10.37v18.42H37.68z" fill="#fbbb97"/><path d="M44.42 36.84a12.43 12.43 0 100-24.86 12.43 12.43 0 000 24.86z" fill="#9b421d"/><path d="M48.84 41.2H37.67V22.78h17.2v12.37a6.05 6.05 0 01-6.05 6.05z" fill="#fbbb97"/><path d="M50.31 20.07c.66 3.44-2.1 6.86-6.17 7.64-4.07.78-7.9-1.38-8.55-4.82z" fill="#9b421d"/><path d="M38.62 30.57a2.35 2.35 0 100-4.71 2.35 2.35 0 000 4.7z" fill="#fbbb97"/><path d="M56.81 23.5l-10.39-7.06c-1.96 2.9-.78 7.13 2.64 9.46 2.45 1.66 5.38 1.89 7.57.83a12.31 12.31 0 00.18-3.23z" fill="#9b421d"/><path d="M58.9 64H5.1l.5-5.25a9.9 9.9 0 019.9-9.9h33a9.9 9.9 0 019.9 9.9z" fill="#133b65"/><path d="M33.43 43.92h-22.8V25.71h27.2v13.81a4.4 4.4 0 01-4.4 4.4z" fill="#1f1919"/><path d="M24.22 39.24a13.6 13.6 0 100-27.19 13.6 13.6 0 000 27.2z" fill="#1f1919"/><path d="M28.61 41.2H17.46V22.78h17.2v12.37a6.05 6.05 0 01-6.05 6.05z" fill="#c47243"/><path d="M17.45 30.57h10.37v18.42H17.45z" fill="#c47243"/><path d="M35 19.03c.87 4.58-2.81 9.13-8.23 10.17s-10.51-1.84-11.39-6.42z" fill="#1f1919"/><path d="M17.71 43.92h-3.37V22.58h7.22v17.49a3.85 3.85 0 01-3.85 3.85z" fill="#1f1919"/><path d="M21 31.79a3.07 3.07 0 100-6.14 3.07 3.07 0 000 6.14z" fill="#ee7a46"/><path d="M40.74 64H5.09l.5-5.25a9.9 9.9 0 019.9-9.9h14.84a9.9 9.9 0 019.9 9.9z" fill="#14684b"/><path d="M29.59 48.84H28l.77 7.72H16.6l.77-7.72H15.8L13.8 64h17.79z" fill="#133b65"/><path d="M48.47 62.45h-.72a2.58 2.58 0 01-2.58-2.58V55.8h5.88v4.08a2.58 2.58 0 01-2.58 2.57z" fill="#319f7a"/></g></svg>